<?xml version="1.0" encoding="UTF-8"?><svg id="Layer_1" xmlns="http://www.w3.org/2000/svg" xmlns:xlink="http://www.w3.org/1999/xlink" viewBox="0 0 1920 1080"><defs><style>.cls-1{letter-spacing:.8em;}.cls-2{fill:#f6a3ab;}.cls-3{fill:#4fc1cb;}.cls-4{clip-path:url(#clippath-2);}.cls-5{clip-path:url(#clippath-1);}.cls-6{letter-spacing:.71em;}.cls-7{letter-spacing:0em;}.cls-8{fill:#942d8f;}.cls-9{font-size:20px;}.cls-9,.cls-10{fill:#fff;font-family:Raleway-Thin, Raleway;font-variation-settings:'wght' 100;font-weight:200;}.cls-11{letter-spacing:.59em;}.cls-12{clip-path:url(#clippath);}.cls-13{letter-spacing:1.02em;}.cls-14{fill:none;}.cls-15{clip-path:url(#clippath-3);}.cls-16{letter-spacing:1.14em;}.cls-10{font-size:25px;}.cls-17{fill:#33308f;}</style><clipPath id="clippath"><rect class="cls-14" x="-36.56" y="-242.34" width="2118.97" height="1476.69"/></clipPath><clipPath id="clippath-1"><rect class="cls-14" x="-36.56" y="-242.34" width="2118.97" height="1476.69"/></clipPath><clipPath id="clippath-2"><rect class="cls-14" x="-36.56" y="-242.34" width="2118.97" height="1476.69"/></clipPath><clipPath id="clippath-3"><rect class="cls-14" x="-36.56" y="-242.34" width="2118.97" height="1476.69"/></clipPath></defs><g class="cls-12"><path class="cls-8" d="m931.83,1234.34c105.36,0,190.78-85.41,190.78-190.78s-85.41-190.78-190.78-190.78-190.78,85.41-190.78,190.78,85.41,190.78,190.78,190.78"/></g><g class="cls-5"><path class="cls-17" d="m1345.79,212.37c125.56,0,227.36-101.79,227.36-227.36s-101.79-227.35-227.36-227.35-227.36,101.79-227.36,227.35,101.79,227.36,227.36,227.36"/></g><g class="cls-4"><path class="cls-2" d="m29.44,539.57c36.45,0,66-29.55,66-66s-29.55-66-66-66-66,29.55-66,66,29.55,66,66,66"/></g><g class="cls-15"><path class="cls-3" d="m236.75,845.18c78.05,0,141.32-63.27,141.32-141.31s-63.27-141.32-141.32-141.32-141.32,63.27-141.32,141.32,63.27,141.31,141.32,141.31"/></g><text class="cls-10" transform="translate(213.01 315.61)"><tspan class="cls-16" x="0" y="0"> </tspan><tspan x="34.95" y="0"> </tspan></text><text class="cls-10" transform="translate(365.41 315.61)"><tspan class="cls-1" x="0" y="0"> </tspan><tspan x="26.55" y="0"> </tspan></text><text class="cls-10" transform="translate(547.76 315.61)"><tspan class="cls-6" x="0" y="0"> </tspan><tspan x="24.2" y="0"> </tspan></text><text class="cls-10" transform="translate(730.74 315.61)"><tspan class="cls-11" x="0" y="0"> </tspan><tspan class="cls-7" x="21.22" y="0"> </tspan></text><text class="cls-9" transform="translate(906.31 315.61)"><tspan class="cls-13" x="0" y="0"> </tspan><tspan x="25.54" y="0"> </tspan></text></svg>